PathFileType	4	(X/Y/Z)	/Users/itak/Documents/Research/Walk-IL/dataset/trc/00454_00167.trc
DataRate	CameraRate	NumFrames	NumMarkers	Units	OrigDataRate	OrigDataStartFrame	OrigNumFrames
100.000000	100.000000	4	53	mm	100.000000	366	489
Frame#	Time	RPSI			LPSI			L3			STRN			T10			C7			CLAV			RBAK			LBAK			LSHO			LUPA			LAEL			LAOL			LWTS			LWPS			LFRA			LIFD			LHPS			LHTS			RSHO			RUPA			RAEL			RAOL			RWTS			RWPS			RFRA			RIFD			RHTS			RHPS			RBHD			LFHD			RFHD			LBHD			LHIP			RHIP			RASI			LASI			LKNE			LTHI			LANK			LTIP			LTOE			LMT1			LMT5			LHEE			RKNE			RTHI			RANK			RTIP			RTOE			RMT1			RMT5			RHEE			
		X1	Y1	Z1	X2	Y2	Z2	X3	Y3	Z3	X4	Y4	Z4	X5	Y5	Z5	X6	Y6	Z6	X7	Y7	Z7	X8	Y8	Z8	X9	Y9	Z9	X10	Y10	Z10	X11	Y11	Z11	X12	Y12	Z12	X13	Y13	Z13	X14	Y14	Z14	X15	Y15	Z15	X16	Y16	Z16	X17	Y17	Z17	X18	Y18	Z18	X19	Y19	Z19	X20	Y20	Z20	X21	Y21	Z21	X22	Y22	Z22	X23	Y23	Z23	X24	Y24	Z24	X25	Y25	Z25	X26	Y26	Z26	X27	Y27	Z27	X28	Y28	Z28	X29	Y29	Z29	X30	Y30	Z30	X31	Y31	Z31	X32	Y32	Z32	X33	Y33	Z33	X34	Y34	Z34	X35	Y35	Z35	X36	Y36	Z36	X37	Y37	Z37	X38	Y38	Z38	X39	Y39	Z39	X40	Y40	Z40	X41	Y41	Z41	X42	Y42	Z42	X43	Y43	Z43	X44	Y44	Z44	X45	Y45	Z45	X46	Y46	Z46	X47	Y47	Z47	X48	Y48	Z48	X49	Y49	Z49	X50	Y50	Z50	X51	Y51	Z51	X52	Y52	Z52	X53	Y53	Z53	

367	3.66	837.1879272460938	917.9944458007812	996.5084228515625	909.7296142578125	920.9851684570312	875.1904296875	871.4380493164062	1030.191040039062	948.0870971679688	1090.662353515625	1255.687866210938	1089.546630859375	856.423095703125	1152.627685546875	934.4585571289062	876.1381225585938	1425.152465820312	978.9026489257812	1046.195068359375	1364.987548828125	1065.512084960938	790.2239990234375	1296.709350585938	1016.826538085938	899.5807495117188	1381.52880859375	875.4158325195312	1025.234375	1419.939208984375	863.2813110351562	1084.71044921875	1315.97509765625	772.26806640625	1172.383178710938	1133.317626953125	751.8094482421875	1087.707885742188	1071.2080078125	757.8804321289062	1282.913940429688	1051.999755859375	903.0365600585938	1313.07421875	1002.77001953125	855.7924194335938	1235.02734375	1084.0986328125	791.0878295898438	1380.895874023438	986.3115844726562	1011.652770996094	1367.809692382812	972.9111328125	912.5067138671875	1347.842163085938	1031.073608398438	950.9021606445312	844.59716796875	1395.895874023438	1147.806396484375	781.912353515625	1335.711059570312	1190.833984375	717.869873046875	1052.722412109375	1187.16015625	706.298583984375	1053.279296875	1120.3798828125	782.5103759765625	823.2129516601562	1162.052612304688	696.8392333984375	828.8880004882812	1174.935546875	704.5288696289062	996.037841796875	1185.014526367188	753.0202026367188	701.5039672851562	1103.970947265625	762.4518432617188	727.669921875	1118.959838867188	693.0760498046875	746.3517456054688	1132.671875	877.570068359375	1621.061645507812	1085.424560546875	1056.506103515625	1662.313232421875	991.0831298828125	1006.416442871094	1665.909057617188	1111.692260742188	931.2012329101562	1617.838989257812	916.0840454101562	1101.801147460938	842.0620727539062	855.9383544921875	883.0559692382812	840.913330078125	1187.394897460938	990.3035888671875	904.2013549804688	1177.927001953125	1133.18359375	900.4776611328125	966.8565673828125	1203.53271484375	436.8569641113281	966.3076782226562	1198.549682617188	594.2655639648438	937.0167236328125	1119.057861328125	22.00423049926758	885.5831909179688	1194.00439453125	277.7980041503906	940.9364013671875	1235.242309570312	30.38814544677734	1097.077514648438	1161.57470703125	42.45942687988281	1067.694213867188	1236.905395507812	27.71023750305176	979.6802368164062	1045.131225585938	15.40825653076172	887.04296875	1043.523803710938	486.9143371582031	1273.850219726562	952.0856323242188	730.9970092773438	1246.621459960938	982.2823486328125	52.04897689819336	1240.075317382812	1030.870727539062	339.7169189453125	1284.642822265625	1185.0576171875	55.62312316894531	1321.421630859375	1154.49951171875	56.43467330932617	1256.01904296875	1077.889526367188	50.37525939941406	1329.705688476562	953.1616821289062	49.57413101196289	1164.450439453125	
368	3.67	841.8431396484375	922.5501098632812	1002.530029296875	913.4871826171875	925.0098876953125	880.848876953125	875.5811767578125	1033.733032226562	953.8289184570312	1094.608520507812	1259.1328125	1093.55419921875	859.97509765625	1156.05517578125	939.866943359375	879.6294555664062	1428.275268554688	983.9172973632812	1049.70263671875	1368.314086914062	1069.753051757812	793.9920043945312	1300.12255859375	1021.977172851562	902.4534301757812	1384.58935546875	880.4099731445312	1027.767578125	1423.086791992188	867.78466796875	1087.237426757812	1319.40380859375	776.5296020507812	1175.132690429688	1136.739501953125	757.3651733398438	1090.455078125	1074.157470703125	762.9797973632812	1283.0048828125	1060.378662109375	913.22900390625	1314.859497070312	1010.444885253906	867.8416137695312	1237.282348632812	1089.244506835938	799.2056274414062	1378.349365234375	997.8673095703125	1026.124389648438	1368.328857421875	982.3123168945312	926.8036499023438	1346.8779296875	1041.137451171875	963.3858032226562	848.7017822265625	1399.483642578125	1152.783203125	785.8781127929688	1339.6962890625	1195.974609375	721.47265625	1056.529541015625	1189.757446289062	710.74853515625	1057.266967773438	1122.76953125	786.1701049804688	826.7269287109375	1165.634155273438	700.2660522460938	832.740966796875	1175.630493164062	708.0455932617188	999.7974243164062	1187.135620117188	759.936767578125	709.34912109375	1111.177612304688	768.6793212890625	733.5437622070312	1124.9443359375	697.5877075195312	750.161865234375	1133.171875	882.4535522460938	1623.779174804688	1091.218383789062	1061.0625	1664.742065429688	996.1131591796875	1011.645141601562	1667.920532226562	1116.992065429688	935.1552124023438	1621.212036132812	921.5720825195312	1104.713989257812	845.16162109375	859.7219848632812	888.1956176757812	843.8766479492188	1192.261474609375	995.8941650390625	906.6529541015625	1182.822509765625	1137.561279296875	903.1253051757812	970.713134765625	1201.530029296875	437.5862731933594	965.14501953125	1198.132446289062	595.3181762695312	937.5645751953125	1118.962036132812	21.95827102661133	885.48291015625	1192.561279296875	278.6383666992188	939.7985229492188	1235.252197265625	30.56879425048828	1096.65576171875	1161.601928710938	42.59086990356445	1067.509521484375	1236.832275390625	27.74287986755371	979.5439453125	1045.019775390625	15.40438938140869	887.009765625	1042.682861328125	485.0808410644531	1272.544677734375	955.4567260742188	731.7999267578125	1249.775146484375	987.8399047851562	48.60501861572266	1246.496215820312	1032.094604492188	338.0175476074219	1285.826293945312	1191.442260742188	52.06464767456055	1325.60205078125	1160.139282226562	53.55201721191406	1260.49755859375	1084.37451171875	47.39233016967773	1335.361694335938	957.8707885742188	45.55273818969727	1171.187866210938	
369	3.68	846.298828125	926.3124389648438	1008.725830078125	917.0916748046875	928.37646484375	886.6452026367188	879.6219482421875	1036.456298828125	959.630615234375	1098.39306640625	1261.87060546875	1097.647827148438	863.447265625	1158.620971679688	945.2776489257812	882.9423217773438	1430.633422851562	988.8828735351562	1053.142700195312	1370.958862304688	1074.038818359375	797.5340576171875	1302.699340820312	1027.108642578125	905.1995849609375	1386.821166992188	885.4016723632812	1030.170532226562	1425.499267578125	872.2179565429688	1089.495849609375	1322.046020507812	780.6657104492188	1177.893676757812	1139.320678710938	762.6046142578125	1093.199951171875	1076.428955078125	768.0684814453125	1283.234619140625	1067.755004882812	922.6477661132812	1316.40087890625	1017.0380859375	879.110595703125	1239.49560546875	1093.434204101562	806.810791015625	1376.073608398438	1008.189636230469	1039.287719726562	1368.614868164062	990.494140625	940.056884765625	1346.078491210938	1050.017944335938	974.8040161132812	852.6113891601562	1402.398193359375	1157.6982421875	789.7185668945312	1342.906005859375	1201.072875976562	725.1143188476562	1059.635375976562	1192.795166015625	715.4315185546875	1060.390869140625	1125.560302734375	789.9253540039062	829.6557006835938	1170.42724609375	703.6825561523438	835.939697265625	1177.10107421875	711.5716552734375	1002.857299804688	1189.779052734375	766.4656372070312	715.835205078125	1119.10302734375	774.49462890625	737.9838256835938	1131.633422851562	702.02587890625	753.1891479492188	1134.58544921875	887.1929321289062	1625.960815429688	1096.958129882812	1065.455810546875	1666.51025390625	1001.046020507812	1016.728210449219	1669.306518554688	1122.193481445312	938.9077758789062	1624.010498046875	926.9876098632812	1107.581176757812	847.76708984375	863.5276489257812	893.3748779296875	846.0869140625	1197.34375	1001.459777832031	908.216064453125	1187.678588867188	1141.839721679688	905.1998901367188	974.5813598632812	1199.905639648438	438.1163330078125	964.3524780273438	1197.954956054688	596.0590209960938	938.3185424804688	1118.907958984375	21.90312004089355	885.3367919921875	1191.350830078125	279.3115844726562	938.8875122070312	1235.230712890625	30.74443244934082	1096.242553710938	1161.611206054688	42.72908020019531	1067.3115234375	1236.770385742188	27.76640892028809	979.3973388671875	1044.910522460938	15.33715057373047	886.95361328125	1041.755249023438	482.9815979003906	1271.622436523438	959.0209350585938	732.1043701171875	1253.216064453125	991.7825927734375	45.54437255859375	1251.2451171875	1032.705688476562	336.0902709960938	1286.626098632812	1196.25634765625	48.32650756835938	1328.244262695312	1164.216064453125	50.86550521850586	1263.449584960938	1089.21533203125	44.52217102050781	1339.492431640625	961.0789184570312	42.10284423828125	1176.258911132812	
370	3.69	850.5397338867188	929.2222900390625	1015.042175292969	920.5335693359375	931.0657958984375	892.5374145507812	883.5281982421875	1038.357421875	965.468017578125	1102.046264648438	1263.8681640625	1101.823608398438	866.8192749023438	1160.306518554688	950.69677734375	886.1011352539062	1432.235229492188	993.8154296875	1056.55908203125	1372.89453125	1078.378173828125	800.9006958007812	1304.429443359375	1032.239990234375	907.8592529296875	1388.241088867188	890.4048461914062	1032.49267578125	1427.172973632812	876.5923461914062	1091.523193359375	1323.880126953125	784.70166015625	1180.658203125	1141.083618164062	767.5704956054688	1095.948364257812	1077.995239257812	773.1285400390625	1283.613159179688	1074.10888671875	931.351806640625	1317.805908203125	1022.5869140625	889.6119384765625	1241.701171875	1096.691284179688	813.9391479492188	1374.123657226562	1017.266174316406	1051.254272460938	1368.808837890625	997.5051879882812	952.2916259765625	1345.471557617188	1057.718383789062	985.2509765625	856.3613891601562	1404.6103515625	1162.585693359375	793.4561157226562	1345.316650390625	1206.155029296875	728.8223876953125	1061.973999023438	1196.3798828125	720.2249755859375	1062.6103515625	1128.885986328125	793.862060546875	831.9577026367188	1176.171875	707.2560424804688	838.3818359375	1179.539184570312	715.1817626953125	1005.153930664062	1193.089721679688	772.67919921875	720.931884765625	1127.415893554688	779.9583740234375	740.9415283203125	1138.6796875	706.5409545898438	755.346923828125	1137.092163085938	891.7818603515625	1627.603759765625	1102.635131835938	1069.673583984375	1667.646606445312	1005.873046875	1021.643371582031	1670.111694335938	1127.288940429688	942.4700317382812	1626.211059570312	932.3268432617188	1110.3916015625	849.8499755859375	867.3631591796875	898.52001953125	847.5010375976562	1202.601196289062	1006.934204101562	908.90478515625	1192.501831054688	1145.995483398438	906.6854248046875	978.4699096679688	1198.751098632812	438.4155578613281	963.9730834960938	1198.086669921875	596.4666137695312	939.3055419921875	1118.89599609375	21.82982444763184	885.1478881835938	1190.427734375	279.7917785644531	938.2310791015625	1235.165893554688	30.92840385437012	1095.833374023438	1161.597534179688	42.87287521362305	1067.097534179688	1236.719116210938	27.7799015045166	979.2398071289062	1044.807983398438	15.21604919433594	886.869873046875	1040.781616210938	480.6203308105469	1271.091918945312	962.6796264648438	731.8460693359375	1256.903198242188	994.1837768554688	42.77041625976562	1254.485107421875	1032.75390625	333.9056091308594	1287.083251953125	1199.59326171875	44.82919692993164	1329.52685546875	1166.819946289062	48.56237411499023	1265.067626953125	1092.513305664062	41.97901153564453	1342.276245117188	962.8729858398438	38.99401092529297	1179.806884765625	
